<svg width="30" height="20" viewBox="0 0 30 20" fill="none" xmlns="http://www.w3.org/2000/svg">
<path d="M28.4167 8.33331H1.58333C0.708883 8.33331 0 9.0422 0 9.91665V10.0833C0 10.9578 0.708883 11.6666 1.58333 11.6666H28.4167C29.2911 11.6666 30 10.9578 30 10.0833V9.91665C30 9.0422 29.2911 8.33331 28.4167 8.33331Z" fill="#212121"/>
<path d="M28.4167 16.6667H1.58333C0.708883 16.6667 0 17.3756 0 18.25V18.4167C0 19.2911 0.708883 20 1.58333 20H28.4167C29.2911 20 30 19.2911 30 18.4167V18.25C30 17.3756 29.2911 16.6667 28.4167 16.6667Z" fill="#212121"/>
<path d="M28.4167 0H1.58333C0.708883 0 0 0.708882 0 1.58333V1.75C0 2.62445 0.708883 3.33333 1.58333 3.33333H28.4167C29.2911 3.33333 30 2.62445 30 1.75V1.58333C30 0.708882 29.2911 0 28.4167 0Z" fill="#212121"/>
</svg>
