<svg width="40" height="40" viewBox="0 0 40 40" fill="none" xmlns="http://www.w3.org/2000/svg">
<g clip-path="url(#clip0_107_244)">
<path d="M20 0C14.6969 0 9.60625 2.10844 5.85938 5.85781C2.10866 9.6087 0.00107328 14.6956 0 20C0 25.3022 2.10938 30.3928 5.85938 34.1422C9.60625 37.8916 14.6969 40 20 40C25.3031 40 30.3937 37.8916 34.1406 34.1422C37.8906 30.3928 40 25.3022 40 20C40 14.6978 37.8906 9.60719 34.1406 5.85781C30.3937 2.10844 25.3031 0 20 0Z" fill="#254441"/>
<path d="M9.05315 19.7891C14.8844 17.2491 18.7719 15.5745 20.7157 14.7653C26.2719 12.455 27.425 12.0538 28.1782 12.0402C28.3438 12.0375 28.7125 12.0784 28.9532 12.273C29.1532 12.437 29.2094 12.6589 29.2375 12.8147C29.2625 12.9703 29.2969 13.325 29.2688 13.6019C28.9688 16.7644 27.6657 24.4388 27.0032 27.9809C26.725 29.4797 26.1719 29.9822 25.6375 30.0313C24.475 30.1381 23.5938 29.2638 22.4688 28.5266C20.7094 27.3725 19.7157 26.6544 18.0063 25.5284C16.0313 24.2272 17.3125 23.5119 18.4375 22.3431C18.7313 22.0372 23.85 17.3825 23.9469 16.9603C23.9594 16.9075 23.9719 16.7106 23.8532 16.6069C23.7375 16.5028 23.5657 16.5384 23.4407 16.5666C23.2625 16.6066 20.4532 18.4653 15.0032 22.1425C14.2063 22.6906 13.4844 22.9578 12.8344 22.9438C12.1219 22.9284 10.7469 22.54 9.72503 22.2081C8.47503 21.8009 7.47815 21.5856 7.56565 20.8941C7.6094 20.5341 8.10628 20.1656 9.05315 19.7891Z" fill="white"/>
</g>
<defs>
<clipPath id="clip0_107_244">
<rect width="40" height="40" fill="white"/>
</clipPath>
</defs>
</svg>
