<svg width="40" height="40" viewBox="0 0 40 40" fill="none" xmlns="http://www.w3.org/2000/svg">
<g clip-path="url(#clip0_107_242)">
<path d="M15.815 0.00695312L17.03 0.00195312H22.97L24.1867 0.00695312L25.71 0.0236198L26.4317 0.0352865L27.1283 0.0536198L27.8 0.0769531L28.4467 0.10362L29.07 0.13862L29.67 0.180286L30.245 0.230286L30.8 0.285286C33.7 0.611953 35.6883 1.31195 37.1883 2.81195C38.6883 4.31195 39.3883 6.29862 39.715 9.20029L39.7717 9.75529L39.82 10.332L39.8617 10.932L39.895 11.5536L39.9367 12.5336L39.9567 13.217L39.9783 14.2903L39.9933 15.8153L40 17.4486L39.9983 22.9703L39.9933 24.187L39.9767 25.7103L39.965 26.432L39.9467 27.1286L39.9233 27.8003L39.8967 28.447L39.8617 29.0703L39.82 29.6703L39.77 30.2453L39.715 30.8003C39.3883 33.7003 38.6883 35.6886 37.1883 37.1886C35.6883 38.6886 33.7017 39.3886 30.8 39.7153L30.245 39.772L29.6683 39.8203L29.0683 39.862L28.4467 39.8953L27.4667 39.937L26.7833 39.957L25.71 39.9786L24.185 39.9936L22.5517 40.0003L17.03 39.9986L15.8133 39.9936L14.29 39.977L13.5683 39.9653L12.8717 39.947L12.2 39.9236L11.5533 39.897L10.93 39.862L10.33 39.8203L9.755 39.7703L9.2 39.7153C6.3 39.3886 4.31167 38.6886 2.81167 37.1886C1.31167 35.6886 0.611667 33.702 0.285 30.8003L0.228333 30.2453L0.18 29.6686L0.138333 29.0686L0.105 28.447L0.0633333 27.467L0.0433333 26.7836L0.0216667 25.7103L0.00666667 24.1853L0 22.552L0.00166667 17.0303L0.00666667 15.8136L0.0233333 14.2903L0.035 13.5686L0.0533333 12.872L0.0766667 12.2003L0.103333 11.5536L0.138333 10.9303L0.18 10.3303L0.23 9.75529L0.285 9.20029C0.611667 6.30029 1.31167 4.31195 2.81167 2.81195C4.31167 1.31195 6.29833 0.611953 9.2 0.285286L9.755 0.22862L10.3317 0.180286L10.9317 0.13862L11.5533 0.105286L12.5333 0.0636198L13.2167 0.0436198L14.29 0.0219531L15.815 0.00695312ZM11.3167 12.167H6.75C6.96667 22.567 12.1667 28.817 21.2833 28.817H21.8V22.867C25.15 23.2003 27.6833 25.6503 28.7 28.817H33.4333C32.1333 24.0836 28.7167 21.467 26.5833 20.467C28.7167 19.2336 31.7167 16.2336 32.4333 12.167H28.1333C27.2 15.467 24.4333 18.467 21.8 18.7503V12.167H17.5V23.7003C14.8333 23.0336 11.4667 19.8003 11.3167 12.167Z" fill="#254441"/>
<path d="M11.3167 12.167H6.75C6.96667 22.567 12.1667 28.817 21.2833 28.817H21.8V22.867C25.15 23.2003 27.6833 25.6503 28.7 28.817H33.4333C32.1333 24.0836 28.7167 21.467 26.5833 20.467C28.7167 19.2336 31.7167 16.2336 32.4333 12.167H28.1333C27.2 15.467 24.4333 18.467 21.8 18.7503V12.167H17.5V23.7003C14.8333 23.0336 11.4667 19.8003 11.3167 12.167Z" fill="white"/>
</g>
<defs>
<clipPath id="clip0_107_242">
<rect width="40" height="40" fill="white"/>
</clipPath>
</defs>
</svg>
